<?xml version="1.0" encoding="utf-8"?><svg viewBox="0 0 16 16" xmlns="http://www.w3.org/2000/svg" xmlns:xlink="http://www.w3.org/1999/xlink"><style>:root>svg{display:none}:root>svg:target{display:block}</style><svg fill="none" viewBox="0 0 16 12" id="bird" xmlns="http://www.w3.org/2000/svg"><path d="M7.243 11.42a1.858 1.858 0 01-2.628 0L.545 7.35a1.858 1.858 0 012.627-2.628l2.425 2.425a.47.47 0 00.664 0L12.828.58a1.858 1.858 0 012.628 2.627L7.243 11.42z" fill="#FECF01"/></svg><svg fill="none" viewBox="0 0 16 16" id="clock" xmlns="http://www.w3.org/2000/svg"><path d="M8 0C3.589 0 0 3.589 0 8s3.589 8 8 8 8-3.589 8-8-3.589-8-8-8zm0 14.298A6.305 6.305 0 011.702 8 6.305 6.305 0 018 1.702 6.305 6.305 0 0114.298 8 6.305 6.305 0 018 14.298z" fill="#C7C7C7"/><path d="M12.17 7.753H8.573V3.43a.659.659 0 00-1.317 0v4.982c0 .363.295.658.658.658h4.254a.659.659 0 000-1.317z" fill="#C7C7C7"/></svg></svg>