<?xml version="1.0" encoding="iso-8859-1"?><svg viewBox="0 0 512 512" xmlns="http://www.w3.org/2000/svg" xmlns:xlink="http://www.w3.org/1999/xlink"><style>:root>svg{display:none}:root>svg:target{display:block}</style><svg viewBox="0 0 512 512" id="close" xmlns="http://www.w3.org/2000/svg"><path d="M439.026 0H72.975C32.737 0 0 32.737 0 72.975v366.05C0 479.264 32.737 512 72.975 512h366.05C479.264 512 512 479.264 512 439.026V72.975C512 32.737 479.264 0 439.026 0zm31.61 439.025c0 17.43-14.181 31.611-31.61 31.611H72.975c-17.43 0-31.611-14.181-31.611-31.61V72.975c0-17.43 14.181-31.611 31.611-31.611h366.05c17.43 0 31.611 14.181 31.611 31.611v366.05z"/><path d="M349.064 319.814L192.185 162.935c-8.076-8.076-21.172-8.076-29.249 0-8.077 8.077-8.077 21.172 0 29.249l156.879 156.879c4.038 4.039 9.332 6.058 14.625 6.058s10.587-2.019 14.625-6.058c8.075-8.076 8.075-21.172-.001-29.249z"/><path d="M349.065 162.935c-8.077-8.076-21.172-8.076-29.249 0l-156.88 156.879c-8.077 8.077-8.077 21.172 0 29.249a20.616 20.616 0 0014.625 6.058 20.614 20.614 0 0014.624-6.058l156.88-156.879c8.076-8.076 8.076-21.171 0-29.249z"/></svg><svg viewBox="0 0 32 32" id="fullscreen-exit" xmlns="http://www.w3.org/2000/svg"><g fill="#030104"><path d="M24.586 27.414L29.172 32 32 29.172l-4.586-4.586L32 20H20v12zM0 12h12V0L7.414 4.586 2.875.043.047 2.871l4.539 4.543zM0 29.172L2.828 32l4.586-4.586L12 32V20H0l4.586 4.586zM20 12h12l-4.586-4.586 4.547-4.543L29.133.043l-4.547 4.543L20 0z"/></g></svg><svg viewBox="0 0 20 20" id="fullscreen-open" xmlns="http://www.w3.org/2000/svg"><path fill-rule="evenodd" d="M1 1v6h2V3h4V1H1zm2 12H1v6h6v-2H3v-4zm14 4h-4v2h6v-6h-2v4zm0-16h-4v2h4v4h2V1h-2z"/></svg></svg>