<?xml version="1.0" encoding="iso-8859-1"?><svg xmlns="http://www.w3.org/2000/svg" viewBox="0 0 512 512" width="512" height="512"><path d="M439.026 0H72.975C32.737 0 0 32.737 0 72.975v366.05C0 479.264 32.737 512 72.975 512h366.05C479.264 512 512 479.264 512 439.026V72.975C512 32.737 479.264 0 439.026 0zm31.61 439.025c0 17.43-14.181 31.611-31.61 31.611H72.975c-17.43 0-31.611-14.181-31.611-31.61V72.975c0-17.43 14.181-31.611 31.611-31.611h366.05c17.43 0 31.611 14.181 31.611 31.611v366.05z"/><path d="M349.064 319.814L192.185 162.935c-8.076-8.076-21.172-8.076-29.249 0-8.077 8.077-8.077 21.172 0 29.249l156.879 156.879c4.038 4.039 9.332 6.058 14.625 6.058s10.587-2.019 14.625-6.058c8.075-8.076 8.075-21.172-.001-29.249z"/><path d="M349.065 162.935c-8.077-8.076-21.172-8.076-29.249 0l-156.88 156.879c-8.077 8.077-8.077 21.172 0 29.249a20.616 20.616 0 0014.625 6.058 20.614 20.614 0 0014.624-6.058l156.88-156.879c8.076-8.076 8.076-21.171 0-29.249z"/></svg>