<svg width="23" height="17" viewBox="0 0 23 17" fill="none" xmlns="http://www.w3.org/2000/svg">
<path d="M19.6115 0H2.73165C1.22485 0 0 1.22485 0 2.73165V14.2684C0 15.7752 1.22485 17 2.73165 17H19.6069C21.1137 17 22.3385 15.7752 22.3385 14.2684V2.73627C22.3431 1.22947 21.1183 0 19.6115 0ZM21.0952 14.2684C21.0952 15.0865 20.4296 15.752 19.6115 15.752H2.73165C1.91354 15.752 1.24796 15.0865 1.24796 14.2684V2.73627C1.24796 1.91816 1.91354 1.25258 2.73165 1.25258H19.6069C20.425 1.25258 21.0905 1.91816 21.0905 2.73627V14.2684H21.0952Z" fill="#005FA3"/>
<path d="M14.088 8.35667L19.5513 3.45727C19.8055 3.22617 19.8286 2.83329 19.5975 2.57445C19.3664 2.32024 18.9736 2.29713 18.7147 2.52823L11.1807 9.29033L9.71091 7.97766C9.70629 7.97304 9.70166 7.96842 9.70166 7.9638C9.66931 7.93144 9.63696 7.90371 9.59998 7.87598L3.61901 2.52361C3.36018 2.29251 2.9673 2.31562 2.73619 2.57445C2.50509 2.83329 2.5282 3.22617 2.78704 3.45727L8.31504 8.39827L2.81015 13.5519C2.56056 13.7876 2.54669 14.1805 2.78242 14.4347C2.90721 14.5641 3.07361 14.6335 3.24 14.6335C3.39253 14.6335 3.54506 14.578 3.66523 14.4671L9.25332 9.23949L10.7694 10.5938C10.8895 10.7001 11.0374 10.7509 11.1854 10.7509C11.3333 10.7509 11.4858 10.6954 11.6013 10.5891L13.159 9.19327L18.7147 14.4717C18.8349 14.5872 18.992 14.6427 19.1446 14.6427C19.311 14.6427 19.4727 14.578 19.5975 14.4486C19.8333 14.199 19.824 13.8015 19.5744 13.5658L14.088 8.35667Z" fill="#005FA3"/>
</svg>
