<svg width="0" height="0" class="hidden">
  <symbol fill="none" xmlns="http://www.w3.org/2000/svg" viewBox="0 0 9 15" id="arrow-left">
    <path d="M1.564 7.5L8.338.725a.423.423 0 000-.6.423.423 0 00-.6 0L.662 7.201a.423.423 0 000 .6l7.076 7.073a.414.414 0 00.597 0 .423.423 0 000-.6L1.564 7.5z" fill="#fff"></path>
  </symbol>
  <symbol fill="none" xmlns="http://www.w3.org/2000/svg" viewBox="0 0 9 15" id="arrow-right">
    <path d="M7.436 7.5L.662 14.275a.423.423 0 000 .6.423.423 0 00.6 0l7.076-7.076a.423.423 0 000-.6L1.262.126a.414.414 0 00-.597 0 .423.423 0 000 .6L7.436 7.5z" fill="#fff"></path>
  </symbol>
  <symbol xmlns="http://www.w3.org/2000/svg" viewBox="0 0 17 17" id="clock">
    <path d="M8.5 0A8.5 8.5 0 1017 8.5 8.51 8.51 0 008.5 0zm.365 16.253v-1.496a.365.365 0 00-.73 0v1.496A7.767 7.767 0 01.748 8.865h1.495a.365.365 0 000-.73H.748A7.767 7.767 0 018.135.748v1.495a.365.365 0 00.73 0V.748a7.767 7.767 0 017.388 7.387h-1.496a.365.365 0 000 .73h1.499a7.767 7.767 0 01-7.391 7.388z"></path>
    <path d="M12.347 11.891l-3.482-3.54V4.67a.365.365 0 00-.73 0V8.5c0 .096.039.187.106.255l3.585 3.647a.365.365 0 10.521-.51z"></path>
  </symbol>
  <symbol xmlns="http://www.w3.org/2000/svg" viewBox="0 0 17 17" id="geo">
    <path d="M8.488 0a6.237 6.237 0 00-6.23 6.23c0 1.579.994 3.808 2.956 6.628a44.451 44.451 0 002.902 3.723l.372.419.372-.42c.06-.066 1.47-1.661 2.903-3.722 1.961-2.82 2.956-5.05 2.956-6.628A6.237 6.237 0 008.489 0zm2.465 12.282a45.188 45.188 0 01-2.465 3.206A45.143 45.143 0 016.03 12.29C4.212 9.678 3.252 7.582 3.252 6.23A5.242 5.242 0 018.488.994a5.242 5.242 0 015.237 5.236c0 1.35-.959 3.444-2.772 6.052z"></path>
    <path d="M8.488 2.303A3.681 3.681 0 004.811 5.98a3.681 3.681 0 003.677 3.677 3.681 3.681 0 003.678-3.677 3.681 3.681 0 00-3.678-3.677zm0 6.36A2.686 2.686 0 015.805 5.98a2.686 2.686 0 012.683-2.683 2.686 2.686 0 012.684 2.683 2.686 2.686 0 01-2.684 2.683z"></path>
  </symbol>
  <symbol xmlns="http://www.w3.org/2000/svg" viewBox="0 0 23 17" id="mail">
    <path d="M19.611 0H2.732A2.734 2.734 0 000 2.732v11.536A2.734 2.734 0 002.732 17h16.875a2.734 2.734 0 002.732-2.732V2.736A2.731 2.731 0 0019.611 0zm1.484 14.268c0 .818-.665 1.484-1.483 1.484H2.732a1.485 1.485 0 01-1.484-1.484V2.736c0-.818.666-1.483 1.484-1.483h16.875c.818 0 1.483.665 1.483 1.483v11.532h.005z"></path>
    <path d="M14.088 8.357l5.463-4.9a.627.627 0 00.047-.883.627.627 0 00-.883-.046L11.18 9.29 9.71 7.978c-.005-.005-.01-.01-.01-.014a.923.923 0 00-.101-.088l-5.98-5.352a.623.623 0 00-.883.05.623.623 0 00.051.883l5.528 4.941-5.505 5.154a.626.626 0 00.855.915L9.253 9.24l1.516 1.355a.623.623 0 00.832-.005l1.558-1.396 5.556 5.279a.623.623 0 10.86-.906l-5.487-5.21z"></path>
  </symbol>
  <symbol xmlns="http://www.w3.org/2000/svg" viewBox="0 0 10 18" id="phone">
    <path d="M8.837 0H1.163C.523 0 0 .523 0 1.163V16.05c0 .64.523 1.163 1.163 1.163h7.674c.64 0 1.163-.522 1.163-1.162V1.162C10 .523 9.477 0 8.837 0zM3.772.838h2.456a.14.14 0 010 .282H3.772a.14.14 0 110-.282zM5 16.633a.581.581 0 110-1.163.581.581 0 010 1.163zm4.19-1.57H.81V1.842h8.38v13.22z"></path>
  </symbol>
</svg>